# xmcd
#
# Track frame offsets: 
#        182
#        19670
#        36832
#        49510
#        65022
#        81525
#        95830
#        110990
#        127115
#        143185
#        156162
#        170835
#
# Disc length: 2471 seconds
#
# Revision: 3
# Processed by: cddbd v1.5.2PL0 Copyright (c) Steve Scherf et al.
# Submitted via: ExactAudioCopy v0.95b4
#
DISCID=b509a50c
DTITLE=T.G. Sheppard - Best Of T.G. Sheppard
DYEAR=1992
DGENRE=Country
TTITLE0=Everything I Do (I Do It For You)
TTITLE1=Last Cheater's Waltz
TTITLE2=Devil In The Bottle
TTITLE3=War Is Hell (On The Homefront Too)
TTITLE4=I Loved 'Em Every One
TTITLE5=Do You Wanna Go To Heaven
TTITLE6=Only One You
TTITLE7=Party Time
TTITLE8=Slow Burn
TTITLE9=I'll Be Coming Back For More
TTITLE10=Make My Day (with Clint Eastwood)
TTITLE11=Mister D.J.
EXTD=ID3G:   2
EXTT0=
EXTT1=
EXTT2=
EXTT3=
EXTT4=
EXTT5=
EXTT6=
EXTT7=
EXTT8=
EXTT9=
EXTT10=
EXTT11=
PLAYORDER=
